<svg xmlns="http://www.w3.org/2000/svg" fill="#000000" class="bi bi-file-medical" viewBox="0 0 16 16" id="File-Medical--Streamline-Bootstrap" height="16" width="16"><desc>File Medical Streamline Icon: https://streamlinehq.com</desc><path d="M8.5 4.5a0.5 0.5 0 0 0 -1 0v0.634l-0.549 -0.317a0.5 0.5 0 1 0 -0.5 0.866L7 6l-0.549 0.317a0.5 0.5 0 1 0 0.5 0.866l0.549 -0.317V7.5a0.5 0.5 0 1 0 1 0v-0.634l0.549 0.317a0.5 0.5 0 1 0 0.5 -0.866L9 6l0.549 -0.317a0.5 0.5 0 1 0 -0.5 -0.866l-0.549 0.317zM5.5 9a0.5 0.5 0 0 0 0 1h5a0.5 0.5 0 0 0 0 -1zm0 2a0.5 0.5 0 0 0 0 1h5a0.5 0.5 0 0 0 0 -1z" stroke-width="1"></path><path d="M2 2a2 2 0 0 1 2 -2h8a2 2 0 0 1 2 2v12a2 2 0 0 1 -2 2H4a2 2 0 0 1 -2 -2zm10 -1H4a1 1 0 0 0 -1 1v12a1 1 0 0 0 1 1h8a1 1 0 0 0 1 -1V2a1 1 0 0 0 -1 -1" stroke-width="1"></path></svg>